<svg width="75" height="75" viewBox="0 0 75 75" fill="none" xmlns="http://www.w3.org/2000/svg">
<circle cx="37.5" cy="37.5" r="36" stroke="#2A4791" stroke-width="3"/>
<path fill-rule="evenodd" clip-rule="evenodd" d="M34.4218 19.7535C36.4942 17.6706 39.3051 16.5003 42.2362 16.5H47.9202C48.339 16.5 48.7406 16.6672 49.0367 16.9647C49.3328 17.2622 49.4991 17.6658 49.4991 18.0865V25.7019C49.4991 26.1227 49.3328 26.5262 49.0367 26.8238C48.7406 27.1213 48.339 27.2885 47.9202 27.2885H42.2362C42.1948 27.2885 42.1537 27.2967 42.1154 27.3126C42.0771 27.3286 42.0423 27.3519 42.0129 27.3814C41.9836 27.4109 41.9604 27.4458 41.9445 27.4843C41.9286 27.5228 41.9205 27.5641 41.9205 27.6058V31.7308H47.9202C48.1603 31.7306 48.3972 31.7855 48.6129 31.8912C48.8287 31.9969 49.0176 32.1506 49.1654 32.3407C49.3132 32.5307 49.4158 32.7522 49.4656 32.9881C49.5154 33.2241 49.5111 33.4683 49.4528 33.7023L47.5581 41.3177C47.4727 41.6611 47.2754 41.9658 46.9977 42.1835C46.72 42.4013 46.3778 42.5194 46.0256 42.5192H41.9205V56.1635C41.9205 56.5842 41.7541 56.9878 41.458 57.2853C41.1619 57.5828 40.7603 57.75 40.3416 57.75H32.7629C32.3441 57.75 31.9425 57.5828 31.6464 57.2853C31.3503 56.9878 31.184 56.5842 31.184 56.1635V42.5192H27.0789C26.6601 42.5192 26.2585 42.3521 25.9624 42.0545C25.6663 41.757 25.5 41.3535 25.5 40.9327V33.3173C25.5 33.109 25.5408 32.9027 25.6202 32.7102C25.6995 32.5177 25.8158 32.3428 25.9624 32.1955C26.1091 32.0481 26.2831 31.9313 26.4747 31.8515C26.6662 31.7718 26.8715 31.7308 27.0789 31.7308H31.184V27.6058C31.1843 24.6605 32.349 21.8359 34.4218 19.7535ZM42.2362 19.6731C40.1425 19.6731 38.1345 20.5088 36.654 21.9965C35.1735 23.4842 34.3418 25.5019 34.3418 27.6058V33.3173C34.3418 33.7381 34.1754 34.1416 33.8793 34.4392C33.5832 34.7367 33.1816 34.9038 32.7629 34.9038H28.6578V39.3462H32.7629C33.1816 39.3462 33.5832 39.5133 33.8793 39.8108C34.1754 40.1084 34.3418 40.5119 34.3418 40.9327V54.5769H38.7627V40.9327C38.7627 40.5119 38.929 40.1084 39.2251 39.8108C39.5212 39.5133 39.9228 39.3462 40.3416 39.3462H44.7919L45.8971 34.9038H40.3416C39.9228 34.9038 39.5212 34.7367 39.2251 34.4392C38.929 34.1416 38.7627 33.7381 38.7627 33.3173V27.6058C38.7627 26.6801 39.1286 25.7923 39.7801 25.1377C40.4315 24.4831 41.315 24.1154 42.2362 24.1154H46.3413V19.6731H42.2362Z" fill="#2A4791"/>
</svg>
