<svg width="75" height="75" viewBox="0 0 75 75" fill="none" xmlns="http://www.w3.org/2000/svg">
<circle cx="37.5" cy="37.5" r="36" stroke="#2A4791" stroke-width="3"/>
<path d="M44.0294 19H30.9706C24.3594 19 19 24.3594 19 30.9706V44.0294C19 50.6406 24.3594 56 30.9706 56H44.0294C50.6406 56 56 50.6406 56 44.0294V30.9706C56 24.3594 50.6406 19 44.0294 19Z" stroke="#2A4791" stroke-width="3" stroke-linecap="round" stroke-linejoin="round"/>
<path d="M37.5 45.3483C41.8346 45.3483 45.3484 41.8345 45.3484 37.5C45.3484 33.1654 41.8346 29.6516 37.5 29.6516C33.1655 29.6516 29.6517 33.1654 29.6517 37.5C29.6517 41.8345 33.1655 45.3483 37.5 45.3483Z" stroke="#2A4791" stroke-width="3" stroke-linecap="round" stroke-linejoin="round"/>
<path d="M48.1516 29.0902C49.3897 29.0902 50.3934 28.0865 50.3934 26.8485C50.3934 25.6104 49.3897 24.6067 48.1516 24.6067C46.9135 24.6067 45.9099 25.6104 45.9099 26.8485C45.9099 28.0865 46.9135 29.0902 48.1516 29.0902Z" fill="#2A4791"/>
</svg>
