<svg width="75" height="75" viewBox="0 0 75 75" fill="none" xmlns="http://www.w3.org/2000/svg">
<circle cx="37.5" cy="37.5" r="36.5" fill="white" stroke="#2A4791" stroke-width="2"/>
<path d="M37.664 34.7055L37.5 34.563L37.336 34.7055L25.7909 44.7407C25.3997 45.0684 24.8699 45.2541 24.3143 45.2499C23.758 45.2457 23.2316 45.0515 22.8472 44.7174C22.464 44.3843 22.2546 43.9416 22.2501 43.4875C22.2455 43.0341 22.4454 42.5893 22.8205 42.251L36.0148 30.7824C36.0148 30.7824 36.0148 30.7823 36.0148 30.7823C36.4035 30.4446 36.9373 30.25 37.5 30.25C38.0627 30.25 38.5965 30.4446 38.9852 30.7823C38.9852 30.7823 38.9852 30.7824 38.9852 30.7824L52.1795 42.251C52.5546 42.5893 52.7545 43.0341 52.7499 43.4875C52.7454 43.9416 52.536 44.3843 52.1528 44.7174C51.7684 45.0515 51.242 45.2457 50.6857 45.2499C50.1301 45.2541 49.6003 45.0684 49.2091 44.7407L37.664 34.7055Z" fill="#2A4791" stroke="white" stroke-width="0.5"/>
</svg>
