<svg width="75" height="75" viewBox="0 0 75 75" fill="none" xmlns="http://www.w3.org/2000/svg">
<circle cx="37.5" cy="37.5" r="36" stroke="#2A4791" stroke-width="3"/>
<path d="M15.3341 49.1759C13.7014 41.4776 13.7014 33.5224 15.3341 25.8241C15.5485 25.0423 15.9626 24.3298 16.5358 23.7566C17.109 23.1834 17.8216 22.7692 18.6034 22.5549C31.1281 20.4817 43.9084 20.4817 56.4332 22.5549C57.215 22.7692 57.9275 23.1834 58.5007 23.7566C59.0739 24.3298 59.4881 25.0423 59.7024 25.8241C61.3351 33.5224 61.3351 41.4776 59.7024 49.1759C59.4881 49.9577 59.0739 50.6702 58.5007 51.2434C57.9275 51.8166 57.215 52.2308 56.4332 52.4451C43.9084 54.5183 31.1281 54.5183 18.6034 52.4451C17.8216 52.2308 17.109 51.8166 16.5358 51.2434C15.9626 50.6702 15.5485 49.9577 15.3341 49.1759Z" stroke="#2A4791" stroke-width="3" stroke-linecap="round" stroke-linejoin="round"/>
<path d="M32.848 44.5057L44.5238 37.5001L32.848 30.4946V44.5057Z" stroke="#2A4791" stroke-width="3" stroke-linecap="round" stroke-linejoin="round"/>
</svg>
