<svg width="22" height="13" viewBox="0 0 22 13" fill="none" xmlns="http://www.w3.org/2000/svg">
<path fill-rule="evenodd" clip-rule="evenodd" d="M0 11.9167C0 11.3184 0.447715 10.8333 1 10.8333H21C21.5523 10.8333 22 11.3184 22 11.9167C22 12.515 21.5523 13 21 13H1C0.447715 13 0 12.515 0 11.9167Z" fill="black"/>
<path fill-rule="evenodd" clip-rule="evenodd" d="M0 6.50001C0 5.9017 0.447715 5.41667 1 5.41667H21C21.5523 5.41667 22 5.9017 22 6.50001C22 7.09831 21.5523 7.58334 21 7.58334H1C0.447715 7.58334 0 7.09831 0 6.50001Z" fill="black"/>
<path fill-rule="evenodd" clip-rule="evenodd" d="M0 1.08333C0 0.485025 0.447715 0 1 0H21C21.5523 0 22 0.485025 22 1.08333C22 1.68164 21.5523 2.16667 21 2.16667H1C0.447715 2.16667 0 1.68164 0 1.08333Z" fill="black"/>
</svg>
