<svg width="83" height="42" viewBox="0 0 83 42" fill="none" xmlns="http://www.w3.org/2000/svg">
<path d="M5.26871 16.196C4.55938 16.196 3.88271 16.0653 3.23871 15.804C2.59471 15.5333 2.03004 15.16 1.54471 14.684L2.60871 13.41C2.98204 13.7647 3.40204 14.0493 3.86871 14.264C4.34471 14.4787 4.82071 14.586 5.29671 14.586C5.88471 14.586 6.32804 14.4647 6.62671 14.222C6.93471 13.9793 7.08871 13.662 7.08871 13.27C7.08871 12.9807 7.01871 12.7473 6.87871 12.57C6.73871 12.3927 6.54738 12.2433 6.30471 12.122C6.07138 11.9913 5.80071 11.8607 5.49271 11.73L4.07871 11.128C3.74271 10.988 3.41138 10.8013 3.08471 10.568C2.76738 10.3347 2.50138 10.0407 2.28671 9.686C2.08138 9.322 1.97871 8.89267 1.97871 8.398C1.97871 7.838 2.12804 7.33867 2.42671 6.9C2.72538 6.46133 3.13604 6.116 3.65871 5.864C4.19071 5.60267 4.79271 5.472 5.46471 5.472C6.07138 5.472 6.65471 5.58867 7.21471 5.822C7.77471 6.05533 8.25538 6.37733 8.65671 6.788L7.70471 7.964C7.37804 7.684 7.03271 7.46467 6.66871 7.306C6.31404 7.14733 5.91271 7.068 5.46471 7.068C4.97938 7.068 4.59204 7.17533 4.30271 7.39C4.01338 7.60467 3.86871 7.89867 3.86871 8.272C3.86871 8.54267 3.94338 8.76667 4.09271 8.944C4.25138 9.12133 4.45204 9.27067 4.69471 9.392C4.94671 9.504 5.21738 9.62067 5.50671 9.742L6.89271 10.316C7.30338 10.484 7.66271 10.694 7.97071 10.946C8.28804 11.1887 8.53538 11.4873 8.71271 11.842C8.89004 12.1873 8.97871 12.612 8.97871 13.116C8.97871 13.676 8.82938 14.1893 8.53071 14.656C8.24138 15.1227 7.81671 15.496 7.25671 15.776C6.70604 16.056 6.04338 16.196 5.26871 16.196ZM13.9517 16.196C13.2423 16.196 12.603 16.0373 12.0337 15.72C11.4737 15.3933 11.0257 14.9267 10.6897 14.32C10.363 13.704 10.1997 12.9713 10.1997 12.122C10.1997 11.254 10.3817 10.5167 10.7457 9.91C11.1097 9.30333 11.5857 8.84133 12.1737 8.524C12.771 8.19733 13.415 8.034 14.1057 8.034C14.591 8.034 15.0203 8.118 15.3937 8.286C15.767 8.454 16.0937 8.664 16.3737 8.916L15.4917 10.092C15.2863 9.91467 15.081 9.77933 14.8757 9.686C14.6703 9.59267 14.4463 9.546 14.2037 9.546C13.793 9.546 13.4243 9.65333 13.0977 9.868C12.7803 10.0733 12.533 10.372 12.3557 10.764C12.1783 11.1467 12.0897 11.5993 12.0897 12.122C12.0897 12.6353 12.1783 13.088 12.3557 13.48C12.533 13.8627 12.7757 14.1613 13.0837 14.376C13.3917 14.5813 13.7417 14.684 14.1337 14.684C14.4417 14.684 14.731 14.6233 15.0017 14.502C15.2723 14.3713 15.5197 14.2127 15.7437 14.026L16.4857 15.244C16.1217 15.5613 15.7157 15.7993 15.2677 15.958C14.829 16.1167 14.3903 16.196 13.9517 16.196ZM18.0321 16V8.23H19.5301L19.6841 9.616H19.7121C19.9921 9.112 20.3281 8.72467 20.7201 8.454C21.1121 8.174 21.5135 8.034 21.9241 8.034C22.1295 8.034 22.2975 8.048 22.4281 8.076C22.5681 8.104 22.6941 8.146 22.8061 8.202L22.4981 9.784C22.3581 9.74667 22.2275 9.71867 22.1061 9.7C21.9941 9.672 21.8541 9.658 21.6861 9.658C21.3875 9.658 21.0655 9.77933 20.7201 10.022C20.3841 10.2647 20.0995 10.68 19.8661 11.268V16H18.0321ZM26.9113 16.196C26.2673 16.196 25.6606 16.0373 25.0913 15.72C24.5313 15.3933 24.0786 14.9267 23.7333 14.32C23.388 13.704 23.2153 12.9713 23.2153 12.122C23.2153 11.254 23.388 10.5167 23.7333 9.91C24.0786 9.30333 24.5313 8.84133 25.0913 8.524C25.6606 8.19733 26.2673 8.034 26.9113 8.034C27.3966 8.034 27.8586 8.12733 28.2973 8.314C28.7453 8.49133 29.142 8.75733 29.4873 9.112C29.8326 9.45733 30.1033 9.882 30.2993 10.386C30.5046 10.89 30.6073 11.4687 30.6073 12.122C30.6073 12.9713 30.4346 13.704 30.0893 14.32C29.744 14.9267 29.2866 15.3933 28.7173 15.72C28.1573 16.0373 27.5553 16.196 26.9113 16.196ZM26.9113 14.684C27.294 14.684 27.6206 14.5813 27.8913 14.376C28.162 14.1613 28.3673 13.8627 28.5073 13.48C28.6566 13.088 28.7313 12.6353 28.7313 12.122C28.7313 11.5993 28.6566 11.1467 28.5073 10.764C28.3673 10.372 28.162 10.0733 27.8913 9.868C27.6206 9.65333 27.294 9.546 26.9113 9.546C26.538 9.546 26.216 9.65333 25.9453 9.868C25.6746 10.0733 25.4646 10.372 25.3153 10.764C25.1753 11.1467 25.1053 11.5993 25.1053 12.122C25.1053 12.6353 25.1753 13.088 25.3153 13.48C25.4646 13.8627 25.6746 14.1613 25.9453 14.376C26.216 14.5813 26.538 14.684 26.9113 14.684ZM34.1789 16.196C33.7496 16.196 33.4043 16.1073 33.1429 15.93C32.8816 15.7433 32.6949 15.4867 32.5829 15.16C32.4709 14.824 32.4149 14.4367 32.4149 13.998V4.842H34.2489V14.082C34.2489 14.306 34.2909 14.4647 34.3749 14.558C34.4589 14.642 34.5476 14.684 34.6409 14.684C34.6783 14.684 34.7156 14.684 34.7529 14.684C34.7903 14.6747 34.8463 14.6653 34.9209 14.656L35.1449 16.028C35.0329 16.0747 34.8976 16.112 34.7389 16.14C34.5896 16.1773 34.4029 16.196 34.1789 16.196ZM38.4582 16.196C38.0289 16.196 37.6836 16.1073 37.4222 15.93C37.1609 15.7433 36.9742 15.4867 36.8622 15.16C36.7502 14.824 36.6942 14.4367 36.6942 13.998V4.842H38.5282V14.082C38.5282 14.306 38.5702 14.4647 38.6542 14.558C38.7382 14.642 38.8269 14.684 38.9202 14.684C38.9576 14.684 38.9949 14.684 39.0322 14.684C39.0696 14.6747 39.1256 14.6653 39.2002 14.656L39.4242 16.028C39.3122 16.0747 39.1769 16.112 39.0182 16.14C38.8689 16.1773 38.6822 16.196 38.4582 16.196ZM44.2857 16V5.654H47.0437C48.1077 5.654 49.0131 5.84533 49.7597 6.228C50.5157 6.61067 51.0897 7.18 51.4817 7.936C51.8831 8.692 52.0837 9.644 52.0837 10.792C52.0837 11.9307 51.8831 12.8873 51.4817 13.662C51.0897 14.4367 50.5251 15.02 49.7877 15.412C49.0504 15.804 48.1684 16 47.1417 16H44.2857ZM46.1337 14.502H46.9177C47.6084 14.502 48.1964 14.3713 48.6817 14.11C49.1764 13.8393 49.5497 13.4287 49.8017 12.878C50.0631 12.3273 50.1937 11.632 50.1937 10.792C50.1937 9.93333 50.0631 9.238 49.8017 8.706C49.5497 8.174 49.1764 7.782 48.6817 7.53C48.1964 7.278 47.6084 7.152 46.9177 7.152H46.1337V14.502ZM57.2082 16.196C56.5642 16.196 55.9575 16.0373 55.3882 15.72C54.8282 15.3933 54.3755 14.9267 54.0302 14.32C53.6848 13.704 53.5122 12.9713 53.5122 12.122C53.5122 11.254 53.6848 10.5167 54.0302 9.91C54.3755 9.30333 54.8282 8.84133 55.3882 8.524C55.9575 8.19733 56.5642 8.034 57.2082 8.034C57.6935 8.034 58.1555 8.12733 58.5942 8.314C59.0422 8.49133 59.4388 8.75733 59.7842 9.112C60.1295 9.45733 60.4002 9.882 60.5962 10.386C60.8015 10.89 60.9042 11.4687 60.9042 12.122C60.9042 12.9713 60.7315 13.704 60.3862 14.32C60.0408 14.9267 59.5835 15.3933 59.0142 15.72C58.4542 16.0373 57.8522 16.196 57.2082 16.196ZM57.2082 14.684C57.5908 14.684 57.9175 14.5813 58.1882 14.376C58.4588 14.1613 58.6642 13.8627 58.8042 13.48C58.9535 13.088 59.0282 12.6353 59.0282 12.122C59.0282 11.5993 58.9535 11.1467 58.8042 10.764C58.6642 10.372 58.4588 10.0733 58.1882 9.868C57.9175 9.65333 57.5908 9.546 57.2082 9.546C56.8348 9.546 56.5128 9.65333 56.2422 9.868C55.9715 10.0733 55.7615 10.372 55.6122 10.764C55.4722 11.1467 55.4022 11.5993 55.4022 12.122C55.4022 12.6353 55.4722 13.088 55.6122 13.48C55.7615 13.8627 55.9715 14.1613 56.2422 14.376C56.5128 14.5813 56.8348 14.684 57.2082 14.684ZM63.8217 16L61.7637 8.23H63.5977L64.5497 12.248C64.6244 12.6307 64.6897 13.004 64.7457 13.368C64.8111 13.732 64.8764 14.1053 64.9417 14.488H65.0117C65.0957 14.1053 65.1751 13.732 65.2497 13.368C65.3244 12.9947 65.4084 12.6213 65.5017 12.248L66.5237 8.23H68.1757L69.2117 12.248C69.3051 12.6307 69.3937 13.004 69.4777 13.368C69.5617 13.732 69.6457 14.1053 69.7297 14.488H69.7997C69.8651 14.1053 69.9304 13.732 69.9957 13.368C70.0611 13.004 70.1311 12.6307 70.2057 12.248L71.1157 8.23H72.8517L70.8777 16H68.6937L67.7977 12.388C67.7137 12.024 67.6344 11.66 67.5597 11.296C67.4851 10.9227 67.4057 10.5353 67.3217 10.134H67.2517C67.1771 10.5353 67.1024 10.9227 67.0277 11.296C66.9624 11.66 66.8877 12.0287 66.8037 12.402L65.9217 16H63.8217ZM74.3876 16V8.23H75.8856L76.0396 9.28H76.0676C76.4129 8.93467 76.7909 8.64067 77.2016 8.398C77.6123 8.15533 78.0836 8.034 78.6156 8.034C79.4463 8.034 80.0529 8.30467 80.4356 8.846C80.8183 9.38733 81.0096 10.148 81.0096 11.128V16H79.1756V11.366C79.1756 10.722 79.0776 10.2693 78.8816 10.008C78.6949 9.74667 78.3916 9.616 77.9716 9.616C77.6356 9.616 77.3369 9.7 77.0756 9.868C76.8236 10.0267 76.5389 10.26 76.2216 10.568V16H74.3876Z" fill="white"/>
<path fill-rule="evenodd" clip-rule="evenodd" d="M41.5516 39.7042C37.1055 35.081 34.1427 32.0202 32.6645 30.5231C32.4092 30.2765 31.9693 29.7765 31.3154 30.4298C30.8781 30.8657 30.8962 31.3429 31.3657 31.8602L40.9673 41.7651C41.1251 41.9206 41.3362 42.005 41.5541 41.9998C41.7782 42.0021 41.9951 41.9185 42.1629 41.7651L51.7761 31.5869C52.087 31.0697 52.0741 30.6337 51.7375 30.2805C51.4021 29.9272 50.9932 29.9072 50.5121 30.2231L41.5516 39.7042Z" fill="white"/>
</svg>
