<svg width="75" height="75" viewBox="0 0 75 75" fill="none" xmlns="http://www.w3.org/2000/svg">
<circle cx="37.5" cy="37.5" r="36.5" fill="white" stroke="#2A4791" stroke-width="2"/>
<path d="M53.2997 21.4989C52.8149 21.173 52.2574 20.9746 51.6777 20.9217C51.098 20.8687 50.5144 20.9628 49.9797 21.1954L42.8399 24.2906L33.3401 20.2446C32.9672 20.0832 32.5657 20 32.1601 20C31.7545 20 31.3531 20.0832 30.9801 20.2446L22.2603 23.9669C21.5806 24.266 21.0034 24.7616 20.6013 25.3915C20.1992 26.0214 19.9901 26.7575 20.0004 27.5072V50.2661C19.9967 50.9058 20.1501 51.5364 20.4468 52.1013C20.7435 52.6663 21.1742 53.1479 21.7003 53.5029C22.1851 53.8287 22.7426 54.0271 23.3223 54.0801C23.902 54.1331 24.4856 54.039 25.0203 53.8063L32.1601 50.7111L41.6599 54.7571C42.0321 54.9207 42.4341 55.0034 42.8399 54.9999C43.2454 55.0005 43.6468 54.9179 44.0199 54.7571L52.7397 50.9741C53.4194 50.6751 53.9966 50.1794 54.3987 49.5495C54.8008 48.9196 55.0099 48.1836 54.9996 47.4338V24.7357C55.0033 24.096 54.8499 23.4653 54.5532 22.9004C54.2565 22.3355 53.8258 21.8539 53.2997 21.4989ZM33.6601 23.5219L41.3399 26.8396V51.3787L33.6601 48.061V23.5219ZM23.8403 51.0146C23.7643 51.059 23.6781 51.0823 23.5903 51.0823C23.5025 51.0823 23.4163 51.059 23.3403 51.0146C23.2287 50.9356 23.1389 50.8291 23.0794 50.7052C23.0199 50.5813 22.9927 50.444 23.0003 50.3065V27.5072C22.9979 27.3457 23.0445 27.1873 23.1339 27.0534C23.2233 26.9195 23.3512 26.8167 23.5003 26.7587L30.6601 23.623V48.061L23.8403 51.0146ZM51.9997 47.4945C52.0071 47.6492 51.9693 47.8026 51.891 47.9358C51.8128 48.0689 51.6976 48.1757 51.5597 48.243L44.3399 51.3787V26.9408L51.1597 23.9872C51.2357 23.9428 51.3219 23.9194 51.4097 23.9194C51.4975 23.9194 51.5837 23.9428 51.6597 23.9872C51.7713 24.0662 51.8611 24.1726 51.9206 24.2966C51.9801 24.4205 52.0073 24.5577 51.9997 24.6952V47.4945Z" fill="#2A4791"/>
</svg>
