<svg width="75" height="75" viewBox="0 0 75 75" fill="none" xmlns="http://www.w3.org/2000/svg">
<circle cx="37.5" cy="37.5" r="36.5" fill="white" stroke="#2A4791" stroke-width="2"/>
<path d="M50.7857 39.4642H39.7143H35.2857H24.2143C23.6933 39.4642 23.1937 39.2573 22.8253 38.8889C22.457 38.5205 22.25 38.0209 22.25 37.4999C22.25 36.979 22.457 36.4793 22.8253 36.111C23.1937 35.7426 23.6933 35.5356 24.2143 35.5356H35.2857H39.7143H50.7857C51.3067 35.5356 51.8063 35.7426 52.1747 36.111C52.5431 36.4793 52.75 36.979 52.75 37.4999C52.75 38.0209 52.5431 38.5205 52.1747 38.8889C51.8063 39.2573 51.3067 39.4642 50.7857 39.4642Z" fill="#2A4791" stroke="white" stroke-width="0.5"/>
</svg>
