<svg width="75" height="75" viewBox="0 0 75 75" fill="none" xmlns="http://www.w3.org/2000/svg">
<circle cx="37.5" cy="37.5" r="36.5" fill="white" stroke="#2A4791" stroke-width="2"/>
<path d="M53.25 22.583H46.6V20L43.8 20V22.583H31.2V20H28.4V22.583H21.75C21.286 22.5837 20.8412 22.8289 20.5132 23.2647C20.1851 23.7005 20.0005 24.2914 20 24.9078V52.6753C20.0005 53.2916 20.1851 53.8825 20.5132 54.3183C20.8412 54.7541 21.286 54.9993 21.75 55H53.25C53.714 54.9993 54.1588 54.7541 54.4868 54.3183C54.8149 53.8825 54.9995 53.2916 55 52.6753V24.9078C54.9995 24.2914 54.8149 23.7005 54.4868 23.2647C54.1588 22.8289 53.714 22.5837 53.25 22.583ZM52.6667 51.9004H22.3333V25.6827H28.4V27.8137L31.2 27.8137V25.6827H43.8V27.8137H46.6V25.6827L52.6667 25.6827V51.9004Z" fill="#2A4791"/>
<path d="M28.4 30.7692H31.9V34.1346H28.4V30.7692Z" fill="#2A4791"/>
<path d="M36.1 30.7692H39.6V34.1346H36.1V30.7692Z" fill="#2A4791"/>
<path d="M43.8 30.7692H47.3V34.1346H43.8V30.7692Z" fill="#2A4791"/>
<path d="M28.4 38.1731H31.9V41.5385H28.4V38.1731Z" fill="#2A4791"/>
<path d="M36.1 38.1731H39.6V41.5385H36.1V38.1731Z" fill="#2A4791"/>
<path d="M43.8 38.1731H47.3V41.5385H43.8V38.1731Z" fill="#2A4791"/>
<path d="M28.4 45.5769H31.9V48.9423H28.4V45.5769Z" fill="#2A4791"/>
<path d="M36.1 45.5769H39.6V48.9423H36.1V45.5769Z" fill="#2A4791"/>
<path d="M43.8 45.5769H47.3V48.9423H43.8V45.5769Z" fill="#2A4791"/>
</svg>
