<svg width="75" height="75" viewBox="0 0 75 75" fill="none" xmlns="http://www.w3.org/2000/svg">
<circle cx="37.5" cy="37.5" r="36.5" fill="white" stroke="#2A4791" stroke-width="2"/>
<path d="M39.7143 39.4643H39.4643V39.7143V50.7857C39.4643 51.3067 39.2573 51.8063 38.889 52.1747C38.5206 52.5431 38.021 52.75 37.5 52.75C36.979 52.75 36.4794 52.5431 36.111 52.1747C35.7427 51.8063 35.5357 51.3067 35.5357 50.7857V39.7143V39.4643H35.2857H24.2143C23.6933 39.4643 23.1937 39.2573 22.8253 38.889C22.457 38.5206 22.25 38.021 22.25 37.5C22.25 36.979 22.457 36.4794 22.8253 36.111C23.1937 35.7427 23.6933 35.5357 24.2143 35.5357H35.2857H35.5357V35.2857V24.2143C35.5357 23.6933 35.7427 23.1937 36.111 22.8253C36.4794 22.457 36.979 22.25 37.5 22.25C38.021 22.25 38.5206 22.457 38.889 22.8253C39.2573 23.1937 39.4643 23.6933 39.4643 24.2143V35.2857V35.5357H39.7143H50.7857C51.3067 35.5357 51.8063 35.7427 52.1747 36.111C52.543 36.4794 52.75 36.979 52.75 37.5C52.75 38.021 52.543 38.5206 52.1747 38.889C51.8063 39.2573 51.3067 39.4643 50.7857 39.4643H39.7143Z" fill="#2A4791" stroke="white" stroke-width="0.5"/>
</svg>
