<svg width="75" height="75" viewBox="0 0 75 75" fill="none" xmlns="http://www.w3.org/2000/svg">
<circle cx="37.5" cy="37.5" r="36.5" fill="white" stroke="#2A4791" stroke-width="2"/>
<path d="M42.3707 21.3094C42.0999 21.039 41.733 20.8871 41.3503 20.8871C40.9677 20.8871 40.6007 21.039 40.33 21.3094L21.3094 40.33C21.039 40.6007 20.8871 40.9677 20.8871 41.3503C20.8871 41.733 21.039 42.0999 21.3094 42.3707L23.3674 44.4267C24.3736 43.8645 25.5359 43.6461 26.6776 43.8046C27.8193 43.9631 28.8781 44.4899 29.6931 45.305C30.5082 46.12 31.035 47.1788 31.1935 48.3205C31.352 49.4622 31.1335 50.6244 30.5713 51.6307L32.6293 53.6906C32.7634 53.8248 32.9226 53.9312 33.0979 54.0038C33.2731 54.0765 33.461 54.1138 33.6506 54.1138C33.8403 54.1138 34.0282 54.0765 34.2034 54.0038C34.3786 53.9312 34.5379 53.8248 34.6719 53.6906L53.6906 34.6719C53.961 34.4012 54.1129 34.0342 54.1129 33.6516C54.1129 33.269 53.961 32.902 53.6906 32.6313L51.6307 30.5694C50.6244 31.1316 49.4622 31.35 48.3205 31.1915C47.1788 31.033 46.12 30.5062 45.305 29.6912C44.4899 28.8761 43.9631 27.8174 43.8046 26.6757C43.6461 25.534 43.8645 24.3717 44.4267 23.3655L42.3707 21.3094ZM38.2893 19.2687C38.6915 18.8665 39.1691 18.5474 39.6946 18.3297C40.2201 18.112 40.7834 18 41.3523 18C41.9211 18 42.4844 18.112 43.0099 18.3297C43.5354 18.5474 44.013 18.8665 44.4152 19.2687L46.6695 21.525C47.6533 22.5068 47.4781 23.8872 46.9814 24.7208C46.7084 25.1806 46.5963 25.7183 46.6629 26.2489C46.7294 26.7795 46.9708 27.2729 47.349 27.651C47.7271 28.0292 48.2205 28.2706 48.7511 28.3371C49.2817 28.4037 49.8194 28.2916 50.2792 28.0186C51.1128 27.5238 52.4932 27.3467 53.475 28.3305L55.7313 30.5887C56.1335 30.9909 56.4526 31.4684 56.6703 31.994C56.888 32.5195 57 33.0828 57 33.6516C57 34.2204 56.888 34.7837 56.6703 35.3093C56.4526 35.8348 56.1335 36.3123 55.7313 36.7145L36.7145 55.7313C36.3123 56.1335 35.8348 56.4526 35.3093 56.6703C34.7837 56.888 34.2204 57 33.6516 57C33.0828 57 32.5195 56.888 31.994 56.6703C31.4684 56.4526 30.9909 56.1335 30.5887 55.7313L28.3324 53.4769C27.3505 52.4951 27.5238 51.1128 28.0205 50.2812C28.2935 49.8213 28.4056 49.2836 28.3391 48.753C28.2725 48.2224 28.0311 47.7291 27.6529 47.3509C27.2748 46.9728 26.7815 46.7313 26.2508 46.6648C25.7202 46.5982 25.1825 46.7103 24.7227 46.9834C23.8891 47.4781 22.5088 47.6533 21.5269 46.6695L19.2687 44.4133C18.8665 44.011 18.5474 43.5335 18.3297 43.008C18.112 42.4824 18 41.9192 18 41.3503C18 40.7815 18.112 40.2182 18.3297 39.6927C18.5474 39.1671 18.8665 38.6896 19.2687 38.2874L38.2893 19.2687Z" fill="#2A4791"/>
</svg>
